<svg width="1923" height="367" viewBox="0 0 1923 367" fill="none" xmlns="http://www.w3.org/2000/svg">
<path d="M50.5 103L41 67.5L72.5 15.5L108.5 4.5L117.5 43L84 95L50.5 103Z" fill="url(#paint0_linear_25_140)"/>
<path d="M72.5 15.5L108.5 4.5L83 25.5L72.5 15.5Z" fill="#5CFC34"/>
<path d="M41 67.5L72.5 15.5L83 25.5L55 75L41 67.5Z" fill="#97F77F"/>
<path d="M50.5 103L41 67.5L55 75L50.5 103Z" fill="#56FBB1"/>
<path d="M1039.14 291.99L1063.59 284.901L1100.06 305.976L1108.19 330.755L1081.65 337.54L1045.16 315.079L1039.14 291.99Z" fill="url(#paint1_linear_25_140)"/>
<path d="M1100.06 305.976L1108.19 330.755L1093.28 313.392L1100.06 305.976Z" fill="#5CFC34"/>
<path d="M1063.59 284.901L1100.06 305.976L1093.28 313.392L1058.59 294.706L1063.59 284.901Z" fill="#97F77F"/>
<path d="M1039.14 291.99L1063.59 284.901L1058.59 294.706L1039.14 291.99Z" fill="#56FBB1"/>
<path d="M1424 88L1421.5 117L1448 112L1479 84.5V49.5L1442 55.5L1424 88Z" fill="#97F77F"/>
<path d="M1463 65L1479 49.5L1442 55.5L1463 65Z" fill="#B3FFBA"/>
<path d="M1424 88L1442 55.5L1463 65L1433 103.5L1424 88Z" fill="#93FFB7"/>
<path d="M1421.5 117L1424 88L1433 103.5L1421.5 117Z" fill="#98FFA2"/>
<path d="M263.053 336.446L284.684 316.968L261.91 302.524L220.485 301.443L196.583 327.011L227.71 347.895L263.053 336.446Z" fill="#97F77F"/>
<path d="M218.857 326.615L196.583 327.011L227.71 347.895L218.857 326.615Z" fill="#B3FFBA"/>
<path d="M263.053 336.446L227.71 347.895L218.856 326.615L267.064 318.977L263.053 336.446Z" fill="#93FFB7"/>
<path d="M284.684 316.968L263.053 336.446L267.064 318.977L284.684 316.968Z" fill="#98FFA2"/>
<path d="M429 119.5L425.5 132L553.5 114L547.5 106.5L522.5 105L509.5 89.5L498.5 91L484 75L469 87L461.5 109.5H445.5L429 119.5Z" fill="#5F8CB0"/>
<path d="M446.5 120.5L440 130L518 119L516 114L509.5 107.5L497 111L492 104L476 99L470.5 117.5L446.5 120.5Z" fill="#325C7B"/>
<path d="M476.5 102L476 99L480 98.5L492 104L497 111L491.5 112.5L486 105L476.5 102Z" fill="#22445E"/>
<path d="M509.5 107.5L504 109L509 114.5L511 120L518 119L516 114L509.5 107.5Z" fill="#22445E"/>
<path d="M514 105L502 90.5L509.5 89.5L522.5 105H514Z" fill="#0A3149"/>
<path d="M547.5 106.5L540.5 106L547 115L554 114L547.5 106.5Z" fill="#0A3149"/>
<path d="M429 27L438 56.5L420 56L429 27Z" fill="#B3E59F"/>
<path d="M438.5 56.5L461.5 110H447.5L420 56L438.5 56.5Z" fill="#78C2A4"/>
<path d="M438 56L461.5 110L469.5 87L458 38L438 56Z" fill="#66B394"/>
<path d="M438 56.5L429 27.5L458 38L438 56.5Z" fill="#95D6A4"/>
<path d="M525.5 0.5L507.5 29L545 34.0482L525.5 0.5Z" fill="#B3E59F"/>
<path d="M507.5 29L498.5 91.5L510 90L545 34.0482L507.5 29Z" fill="#78C2A4"/>
<path d="M507.5 29L498.5 91.5L484 75L490 15.5L507.5 29Z" fill="#66B394"/>
<path d="M507.5 29L525.5 0.5L490 15.5L507.5 29Z" fill="#95D6A4"/>
<path d="M1584.73 263.174L1584.33 255.029L1513.78 289.757L1518.7 293.129L1533.45 289.352L1543.98 296.209L1550.05 293.253L1561.54 300.128L1567.89 290.132L1567.87 275.246L1577.12 272.253L1584.73 263.174Z" fill="#5F8CB0"/>
<path d="M1574.41 265.848L1576.33 258.939L1533.34 280.121L1535.47 282.743L1540.49 285.422L1547.04 280.987L1551.29 284.246L1561.51 284.25L1561.11 272.135L1574.41 265.848Z" fill="#325C7B"/>
<path d="M1560.64 282.546L1561.51 284.25L1559.3 285.298L1551.29 284.246L1547.04 280.987L1549.93 279.059L1554.57 282.525L1560.64 282.546Z" fill="#22445E"/>
<path d="M1540.49 285.422L1543.38 283.495L1539.42 281.134L1537.2 278.212L1533.34 280.121L1535.47 282.743L1540.49 285.422Z" fill="#22445E"/>
<path d="M1538.37 287.762L1548.12 294.207L1543.98 296.209L1533.45 289.352L1538.37 287.762Z" fill="#0A3149"/>
<path d="M1518.7 293.129L1522.85 292.12L1517.34 287.942L1513.49 289.851L1518.7 293.129Z" fill="#0A3149"/>
<path d="M1602.65 318.605L1591.73 302.61L1602.24 299.543L1602.65 318.605Z" fill="#B3E59F"/>
<path d="M1591.44 302.704L1567.77 274.946L1575.87 272.327L1602.24 299.543L1591.44 302.704Z" fill="#78C2A4"/>
<path d="M1591.83 302.91L1567.77 274.946L1567.6 290.225L1583.75 317.437L1591.83 302.91Z" fill="#66B394"/>
<path d="M1591.73 302.61L1602.56 318.305L1583.75 317.437L1591.73 302.61Z" fill="#95D6A4"/>
<path d="M1551.97 352.535L1556.86 332.089L1534.19 336.079L1551.97 352.535Z" fill="#B3E59F"/>
<path d="M1556.86 332.089L1549.95 292.953L1543.59 296.003L1534.19 336.079L1556.86 332.089Z" fill="#78C2A4"/>
<path d="M1556.86 332.089L1549.95 292.953L1561.54 300.128L1569.6 336.906L1556.86 332.089Z" fill="#66B394"/>
<path d="M1556.86 332.089L1551.97 352.535L1569.6 336.906L1556.86 332.089Z" fill="#95D6A4"/>
<path d="M78.5 134.5L0.5 111V249.5L118 313.5L175.5 304L72 256.5L185 301L269 284.5L384 313.5L402.5 308L304 249.5L415 308L509.5 291L440.5 256.5L535.5 295.5H552.5L529.5 278L570.5 301L715.5 328L731.5 322L633.5 270L698.5 288L747 319L810 301L874.5 319L1033 266L1208.5 322L1288.5 287.5L1324.5 301L1337.5 276.5V287.5L1326.5 308L1347.5 319L1441 284.5L1487.5 303.5L1587.5 258L1707.5 313L1762.5 287.5L1923 358V114L1885.5 141L1856 117L1790.5 127L1762.5 121L1745.5 130.5L1713.5 114L1681.5 109.5L1628.5 127L1605.5 117L1516 160L1478.5 141L1395.5 176L1230 105.5L1173.5 155.5L1130.5 127L1007.5 160L902.5 127L833 155.5L754.5 127L722.5 139.5L639.5 105.5H610L378 139.5L273 121L251 134.5L212 111L185 139.5L156 111L78.5 134.5Z" fill="#56FBB1"/>
<path fill-rule="evenodd" clip-rule="evenodd" d="M1923 234.5L1886.5 202L1719.5 246L1561.5 202L1405 262L1317.5 226.5H1047.5L969.5 191.5L791 262L708.5 234.5L583.5 271L354 216L277 234.5L1.5 183.5L0.5 188.956V249.5L118 313.5L175.5 304L72 256.5L185 301L269 284.5L384 313.5L402.5 308L304 249.5L415 308L509.5 291L440.5 256.5L535.5 295.5H552.5L529.5 278L570.5 301L715.5 328L731.5 322L633.5 270L698.5 288L747 319L810 301L874.5 319L1033 266L1208.5 322L1288.5 287.5L1324.5 301L1337.5 276.5V287.5L1326.5 308L1347.5 319L1441 284.5L1487.5 303.5L1587.5 258L1707.5 313L1762.5 287.5L1923 358V234.5Z" fill="#5CA886"/>
<path d="M759.5 234.5L721 209L787.5 237.5L759.5 234.5Z" fill="white"/>
<path d="M780 278L759.5 274H875.5L780 278Z" fill="white"/>
<path d="M1062 178.5L914.5 166L963 162L1041 171L1062 178.5Z" fill="white"/>
<path d="M1004.5 241L941.5 209L1041 250.5L1004.5 241Z" fill="white"/>
<path d="M1139 245L1081.5 231H1291L1262.5 241L1139 245Z" fill="white"/>
<path d="M1229.5 286L1144.5 255L1243 286H1229.5Z" fill="white"/>
<path d="M1311.5 166L1268 151.5L1301 159.5L1311.5 166Z" fill="white"/>
<path d="M1384.5 297.5L1370.5 264.5L1381.5 279L1384.5 297.5Z" fill="white"/>
<path d="M1479.5 151.5L1416 188L1497 156.5L1479.5 151.5Z" fill="white"/>
<path d="M1574 218.5L1511.5 237L1549.5 231L1574 218.5Z" fill="white"/>
<path d="M1622 162H1613L1710 144.5L1694 151.5L1622 162Z" fill="white"/>
<path d="M1675 257.5L1639.5 278.5L1694 251.5L1675 257.5Z" fill="white"/>
<path d="M1753.5 223L1704 231L1753.5 218.5L1830 204.5L1816 214.5L1753.5 223Z" fill="white"/>
<path d="M1905 278.5L1885 246.5L1916 278.5H1905Z" fill="white"/>
<path d="M207 168L97.5 173.5L224 178L207 168Z" fill="white"/>
<path d="M163.5 239.5L102 219L281 260.5L261.5 264L250.5 256L163.5 239.5Z" fill="white"/>
<path d="M453 211L264 145L412.5 188.5L453 211Z" fill="white"/>
<path d="M459 225.5L441 215L670 230.5L527 237.5L459 225.5Z" fill="white"/>
<path d="M602 143.5L551.5 137L571 146L704.5 159.5L763 167L838 175.5L763 153H700.5L653 143.5H602Z" fill="white"/>
<defs>
<linearGradient id="paint0_linear_25_140" x1="51.5" y1="24.5" x2="101.5" y2="90.5" gradientUnits="userSpaceOnUse">
<stop stop-color="#4FF0A3"/>
<stop offset="1" stop-color="#70FF59"/>
</linearGradient>
<linearGradient id="paint1_linear_25_140" x1="1093.52" y1="291.559" x2="1048.52" y2="327.137" gradientUnits="userSpaceOnUse">
<stop stop-color="#4FF0A3"/>
<stop offset="1" stop-color="#70FF59"/>
</linearGradient>
</defs>
</svg>
